<svg xmlns="http://www.w3.org/2000/svg" fill="none" viewBox="0.29 0.33 65.07 84.35">
  <g clip-path="url(#clip0_213_3504)">
    <path d="M0.6364 33.9324C0.539976 27.3594 0.419446 20.7743 0.286862 14.2302C0.267577 13.3344 0.51346 12.977 1.39815 12.7114C11.178 9.78224 20.6855 6.13835 29.8892 1.70724C30.8751 1.23153 31.8393 0.325989 32.8132 0.325989C33.7871 0.325989 34.7538 1.22911 35.7397 1.7024C45.0037 6.15525 54.5666 9.82812 64.4115 12.7669C65.1034 12.9722 65.3661 13.2498 65.3541 14.0177C65.1926 24.3071 65.101 34.5964 64.9154 44.8834C64.8527 48.3099 64.9997 51.7462 64.6478 55.1631C63.9342 62.1079 60.6654 67.7006 55.5164 72.2717C51.1411 76.1571 46.0186 78.8206 40.7538 81.2378C38.3504 82.3413 35.9157 83.3821 33.4979 84.4542C33.1459 84.6112 32.8325 84.7778 32.4083 84.5871C26.6397 82.0033 20.7602 79.6489 15.4134 76.2054C10.6814 73.158 6.54963 69.5068 3.81841 64.4768C1.85376 60.8571 0.865409 56.9669 0.836481 52.857C0.795501 46.5955 0.723183 40.2687 0.63158 33.93L0.6364 33.9324Z" fill="#0D4F7A"/>
    <path d="M32.7482 82.4089C32.5746 82.4089 32.3866 82.3751 32.1841 82.2833C31.2488 81.8656 30.311 81.4526 29.3733 81.0397C24.9643 79.1007 20.4034 77.0964 16.2451 74.4184C11.0478 71.0691 7.55004 67.5291 5.24067 63.2743C3.37727 59.8404 2.42026 56.1072 2.39374 52.1759C2.35758 46.6244 2.29491 40.8458 2.20089 34.5071C2.11652 28.8082 2.01046 22.793 1.87546 16.1137C1.85377 15.0343 2.24911 14.491 3.28808 14.1819C12.5111 11.4194 21.4376 7.97111 29.8144 3.93603C30.0893 3.80321 30.3689 3.62936 30.663 3.44342C31.3259 3.02566 32.0105 2.59583 32.7723 2.59341H32.7747C33.5364 2.59341 34.2235 3.02324 34.8864 3.43858C35.1805 3.62211 35.4577 3.79839 35.7325 3.92878C44.2395 8.01699 53.2215 11.4846 62.4276 14.2302C63.334 14.5007 63.698 14.9884 63.6835 15.9133C63.6184 20.0546 63.5654 24.1984 63.5124 28.3397C63.4449 33.715 63.3726 39.2714 63.2737 44.736C63.2569 45.6754 63.2569 46.634 63.2569 47.5613C63.2569 49.795 63.2569 52.1035 63.023 54.3782C62.3794 60.6518 59.4505 66.1406 54.3207 70.6948C50.0756 74.4619 45.1242 76.9853 40.4067 79.1514C38.9338 79.8275 37.4272 80.4867 35.9687 81.1267C35.1877 81.4696 34.4043 81.8124 33.6256 82.1578L33.5654 82.1843C33.346 82.2833 33.0712 82.4065 32.7433 82.4065L32.7482 82.4089ZM32.7771 3.64626C32.3167 3.64626 31.7863 3.9795 31.2247 4.33447C30.9185 4.52765 30.6003 4.72808 30.2725 4.88504C21.845 8.94427 12.8678 12.4119 3.59182 15.1913C3.00363 15.3676 2.91685 15.4859 2.9289 16.092C3.06389 22.7737 3.16996 28.7913 3.25433 34.4926C3.34834 40.8338 3.41102 46.6171 3.44718 52.1711C3.47129 55.9285 4.38732 59.4951 6.16635 62.7744C8.38652 66.8674 11.771 70.2868 16.8164 73.5346C20.9048 76.1691 25.4271 78.1565 29.8 80.0786C30.7401 80.4916 31.6803 80.9045 32.6156 81.3247C32.7578 81.3875 32.8422 81.3633 33.1411 81.2281L33.2038 81.1991C33.9848 80.8514 34.7707 80.5085 35.5541 80.1656C37.0077 79.5281 38.5095 78.8713 39.9752 78.1975C44.618 76.0653 49.4874 73.5877 53.6289 69.91C58.6237 65.4765 61.3573 60.362 61.9816 54.2744C62.2106 52.0528 62.2107 49.7708 62.2107 47.5637C62.2107 46.6316 62.2107 45.6681 62.2275 44.7191C62.3264 39.2569 62.3963 33.7005 62.4662 28.3277C62.5192 24.1839 62.5722 20.0401 62.6373 15.8988C62.6446 15.4545 62.5867 15.3796 62.1335 15.2444C52.8744 12.4819 43.8394 8.99498 35.2817 4.88262C34.9539 4.72566 34.6381 4.52765 34.3319 4.33447C33.7703 3.98191 33.2399 3.64867 32.7795 3.64867L32.7771 3.64626Z" fill="#59C9EB"/>
    <path d="M50.254 54.0064C50.4637 53.6756 50.6807 53.8132 50.8687 53.9822C51.3773 54.4362 51.8522 54.9143 51.9752 55.6436C52.0596 56.1314 52.2982 56.5781 52.4959 57.0321C52.6622 57.4136 52.6935 57.7734 52.3994 58.1163C52.2837 58.2515 52.262 58.4206 52.291 58.5993C52.4911 59.867 52.4694 61.13 52.3778 62.3929H54.6293C54.7257 61.4632 54.8197 60.5335 54.9185 59.6038C55.0318 58.5462 55.35 57.5513 55.9069 56.6312C56.2998 55.9793 56.6421 55.3055 56.5867 54.5014C56.5216 53.5596 56.0732 53.2409 55.1958 53.5452C55.0656 53.5886 54.9354 53.6587 54.7956 53.579C54.164 53.224 53.4746 52.9632 52.9274 52.4682C52.52 52.1011 52.3078 51.693 52.5393 51.1111C52.7177 50.6692 52.4501 50.4156 51.9896 50.5195C50.7819 50.7899 49.6586 52.275 49.7478 53.4872C49.7598 53.6393 49.7888 53.7963 49.8466 53.9339C49.9358 54.1392 50.1021 54.2503 50.254 54.0064Z" fill="white"/>
    <path d="M37.8394 49.766C37.8442 49.9447 38.5649 50.8527 38.7096 50.8865C38.941 50.942 39.1049 50.8309 39.2134 50.645C39.4641 50.2224 39.8209 49.9037 40.2186 49.6356C40.4235 49.498 40.4766 49.3 40.5248 49.0899C40.6453 48.5466 40.9732 48.1747 41.4914 47.9984C41.9012 47.8584 42.0796 47.5807 42.123 47.175C42.1664 46.7765 42.2098 46.3829 42.1688 45.9748C42.0941 45.2287 42.6485 44.4922 43.4368 44.2362C43.6417 44.1686 43.8538 44.1251 44.0636 44.0768C44.4468 43.9899 44.7072 43.7557 44.7964 43.3814C44.9434 42.7656 45.0736 42.1426 45.0037 41.5027C44.9892 41.3674 44.9603 41.2274 44.9097 41.0994C44.6975 40.5609 44.5336 40.4957 44.0611 40.8241C41.6409 42.5193 39.8064 44.7022 38.618 47.4189C38.3335 48.0709 38.0949 48.7422 37.9189 49.4328C37.8876 49.5511 37.8586 49.6719 37.8369 49.7636L37.8394 49.766Z" fill="white"/>
    <path d="M40.3946 53.1491C41.3685 54.5183 42.5232 55.7209 43.8056 56.8003C44.6662 57.5271 45.8137 57.8145 46.7683 56.752C47.0985 56.3873 47.4866 56.0758 47.8579 55.7474C48.1038 55.5301 48.1857 55.2814 48.1013 54.9578C48.0338 54.7042 47.9953 54.441 47.9688 54.1826C47.9254 53.7697 48.0845 53.4655 48.5136 53.4099C48.8679 53.3665 48.9523 53.1467 48.9378 52.8642C48.8486 51.0724 49.7815 49.923 51.2809 49.1479C51.6281 48.9692 51.7703 48.7784 51.7679 48.3751C51.7631 47.0736 52.6791 46.0183 54.1496 45.6006C54.7016 45.4436 55.1765 45.2142 55.5284 44.7336C56.3456 43.6228 56.2396 42.4082 55.9479 41.1791C55.7526 40.3532 55.3067 39.6505 54.7763 38.9889C54.3448 38.448 53.841 38.1558 53.1492 38.2041C52.9491 38.2186 52.7466 38.2041 52.5465 38.2041C50.3601 38.2403 48.2532 38.646 46.2645 39.5926C46.1102 39.6675 45.9655 39.7544 45.8137 39.8341C45.6329 39.9282 45.5943 40.0369 45.6883 40.2446C46.3078 41.6017 45.8161 43.775 44.6879 44.6805C44.5144 44.8206 44.5216 44.9147 44.6662 45.0451C45.5967 45.8831 45.346 47.0156 44.6879 47.7883C43.6947 48.9547 42.5232 49.8988 41.1009 50.5074C39.7486 51.0869 39.5268 51.9273 40.3898 53.1443L40.3946 53.1491ZM43.6152 52.8787C43.7936 52.7917 43.9864 52.7265 44.1793 52.6855C45.0326 52.4971 45.9463 52.6613 46.7634 52.2436C46.8189 52.2146 46.896 52.2122 46.9177 52.2822C46.9322 52.3329 46.9105 52.4078 46.8816 52.4537C46.7418 52.6807 46.4959 52.7579 46.2693 52.8449C45.8354 53.0067 45.6329 53.3061 45.669 53.7721C45.7052 54.202 45.7558 54.6318 45.7606 55.064C45.7679 55.5953 45.4762 55.8706 44.9627 55.8706C44.5312 55.8706 44.2203 55.6484 44.0202 55.2959C43.7622 54.8419 43.5501 54.3589 43.3066 53.8953C43.0511 53.4075 43.1258 53.1201 43.6176 52.8787H43.6152Z" fill="white"/>
    <path d="M20.4275 52.5912C19.0318 53.1635 17.6216 53.178 16.1921 52.753C15.1796 52.4512 14.4902 51.7799 14.0346 50.7367C13.5645 51.4684 13.6585 52.1493 13.8851 52.8279C14.1238 53.5475 14.6107 54.0932 15.2062 54.54C16.2427 55.3127 17.0696 56.2496 17.2937 57.556C17.4504 58.4616 17.5011 59.3768 17.4191 60.3209C17.3299 61.3424 17.3154 62.3759 17.1563 63.3877C16.937 64.8027 16.9105 66.2444 16.5609 67.6425C16.5561 67.657 16.5537 67.6691 16.5489 67.6836C16.6742 67.6981 16.7972 67.7174 16.9225 67.7367C17.448 67.8236 17.9567 67.9589 18.4412 68.1375C18.933 67.9106 19.4464 67.7367 19.9695 67.6063C19.9743 67.5846 19.9792 67.5628 19.9864 67.5435H19.9743C20.1093 66.7128 20.2323 65.9498 20.3576 65.1867C20.7602 62.7164 21.1507 60.2437 21.5726 57.7758C21.7245 56.8871 21.9607 56.013 22.1343 55.1292C22.2427 54.5786 22.25 54.0208 22.1029 53.4702C21.857 52.5381 21.3074 52.2363 20.4324 52.5937L20.4275 52.5912Z" fill="white"/>
    <path d="M13.6923 38.7788C13.6971 38.9502 13.8056 39.0902 13.8755 39.24C14.1865 39.8944 14.4902 40.5512 14.7795 41.2177C15.0688 41.8817 15.3436 42.553 15.5943 43.234C15.6328 43.3402 15.6714 43.4441 15.7052 43.5503C15.7751 43.7604 15.8377 43.9681 15.8908 44.1782C15.9703 44.4897 16.0258 44.8012 16.0571 45.1103C16.0692 45.2383 16.0788 45.3687 16.0812 45.4966C16.1053 46.3949 15.8884 47.2787 15.3098 48.1481C15.252 48.235 15.2013 48.3243 15.1531 48.4161C15.0567 48.602 14.9747 48.7976 14.9024 48.9957C14.8663 49.0947 14.8301 49.1937 14.7964 49.2927C14.6276 49.7805 14.6035 50.1982 14.7289 50.5701C14.7771 50.7101 14.8446 50.8405 14.9338 50.9685C14.9627 51.012 14.9964 51.053 15.0302 51.0941C15.1338 51.2172 15.2568 51.3356 15.4038 51.4515C15.452 51.4901 15.5027 51.5263 15.5557 51.565C15.7437 51.6978 15.9366 51.804 16.1342 51.891C16.4621 52.0334 16.7996 52.1179 17.1443 52.159C17.2817 52.1759 17.4215 52.1831 17.5589 52.188C17.6288 52.188 17.6987 52.188 17.7686 52.188C17.8385 52.188 17.9085 52.1832 17.9784 52.1807C18.1182 52.1735 18.2604 52.1614 18.4026 52.1445C18.5449 52.1276 18.6871 52.1083 18.8269 52.0841C19.0824 52.0431 19.3235 51.9731 19.5501 51.8789C19.7767 51.7847 19.9888 51.6688 20.1865 51.5312C20.3842 51.3935 20.5674 51.2366 20.7361 51.0627C20.9048 50.8888 21.0567 50.7005 21.1965 50.4976C21.3339 50.2948 21.4569 50.0823 21.5654 49.8601C21.886 49.1937 22.0692 48.4547 22.1053 47.7496C22.1102 47.6675 22.1102 47.5878 22.1102 47.5081C22.0981 46.4577 21.6545 45.5449 21.17 44.6491C21.1001 44.5211 21.0302 44.3931 20.9603 44.2651C20.5023 43.4272 20.0346 42.5941 19.5718 41.7586C19.4175 41.4809 19.2656 41.2008 19.1138 40.9207C18.81 40.3604 18.5111 39.7978 18.2218 39.2327C17.9326 38.6652 17.6529 38.0929 17.3878 37.5134C17.0672 37.5714 16.7514 37.6438 16.438 37.7283C16.1246 37.8128 15.816 37.9094 15.5099 38.0133C14.8976 38.2209 14.2949 38.4624 13.6947 38.7087C13.6899 38.7353 13.6899 38.7594 13.6899 38.7836L13.6923 38.7788Z" fill="white"/>
    <path d="M16.4886 57.1214C16.4669 57.0682 16.4452 57.0151 16.4211 56.962C16.3295 56.7664 16.2066 56.5974 16.0643 56.4452C15.9221 56.2931 15.763 56.1555 15.5967 56.0251C15.4737 55.9285 15.346 55.8343 15.223 55.7377C14.9747 55.5445 14.7289 55.3489 14.5047 55.1292C14.3938 55.0181 14.2877 54.9022 14.1889 54.779C14.0708 54.6293 13.9719 54.5738 13.8851 54.5907C13.8201 54.6028 13.7622 54.6559 13.7068 54.738C13.6875 54.7645 13.6706 54.7959 13.6537 54.8297C13.6103 54.9118 13.5718 54.9939 13.538 55.0785C13.5043 55.1606 13.4778 55.2451 13.4561 55.3296C13.3669 55.6653 13.3596 56.0057 13.4223 56.3462C13.4392 56.4307 13.4585 56.5153 13.485 56.6022C13.5115 56.6891 13.538 56.7712 13.5718 56.8557C13.5959 56.9185 13.6176 56.9837 13.6344 57.0465C13.6682 57.1721 13.6875 57.2976 13.6947 57.4256C13.6971 57.4884 13.6995 57.5536 13.6947 57.6212C13.673 58.3239 13.6393 59.0242 13.5886 59.7221C13.5404 60.4199 13.4778 61.1178 13.4006 61.8133C13.2849 62.8564 13.1354 63.8972 12.9474 64.9332C12.8847 65.2785 12.8172 65.6238 12.7473 65.9667C12.9016 66.0633 13.0511 66.1623 13.2054 66.2589C13.4247 66.3989 13.6513 66.5317 13.8996 66.6211C13.9936 66.1937 14.0876 65.7638 14.1817 65.3364C14.3191 64.7062 14.4565 64.0735 14.5987 63.4432C14.6782 63.0907 14.7602 62.7381 14.8446 62.388C15.0422 61.5718 15.2062 60.7411 15.4858 59.9539C15.5485 59.7776 15.616 59.6062 15.6907 59.4347C15.7654 59.2633 15.8474 59.0966 15.939 58.93C16.074 58.6837 16.2307 58.4422 16.4115 58.2104C16.4476 58.1645 16.4766 58.1162 16.5031 58.0679C16.5537 57.9714 16.5826 57.8675 16.5923 57.7637C16.6164 57.5536 16.5706 57.3314 16.4886 57.1189V57.1214Z" fill="white"/>
    <path d="M24.2725 47.7641C24.2532 47.612 24.2243 47.4623 24.1881 47.315C24.1519 47.1677 24.1085 47.0252 24.0579 46.8851C24.0073 46.7451 23.9494 46.6074 23.882 46.477C23.8482 46.4118 23.8145 46.3466 23.7783 46.2814C23.706 46.1535 23.6264 46.0303 23.5421 45.9144C23.2865 45.5618 22.9732 45.2576 22.6116 45.0185C22.491 44.9388 22.3657 44.8664 22.2355 44.8036C22.1704 44.7722 22.1029 44.7408 22.0354 44.7142C22.3826 45.4387 22.6742 46.1728 22.8213 46.9455C22.8695 47.2039 22.9032 47.4647 22.9153 47.7303C22.9346 48.1142 22.9346 48.4982 22.9322 48.8821C22.9322 49.0753 22.9298 49.2661 22.9298 49.4593C22.9298 49.6525 22.9298 49.8432 22.9346 50.0364C22.937 50.1861 22.9635 50.3286 23.0093 50.4638C23.0479 50.5773 23.0985 50.6836 23.166 50.785C23.1997 50.8357 23.2359 50.8864 23.2745 50.9347C23.313 50.983 23.3564 51.0313 23.4022 51.0772C23.7711 50.5628 24.0218 50.0243 24.164 49.481C24.2122 49.2999 24.2484 49.1212 24.2725 48.9401C24.2845 48.8604 24.2918 48.7807 24.299 48.701C24.311 48.5417 24.3159 48.3847 24.3135 48.2277C24.3086 48.0708 24.2966 47.9162 24.2773 47.7641H24.2725Z" fill="white"/>
    <path d="M26.4203 28.4315C26.3986 29.3853 26.5987 30.3198 26.6493 31.264H28.6694C28.5031 29.4384 28.6935 27.6153 28.6019 25.7945C28.5826 25.4009 28.544 25.0315 28.4163 24.6403C28.1174 23.7203 27.9438 22.7616 27.9462 21.7836C27.9462 21.4576 27.9269 21.1364 27.8739 20.8129C27.7751 20.1947 27.8209 19.6079 28.2548 19.0718C28.5079 18.7579 28.8671 18.415 28.7345 17.9369C28.5151 17.1424 28.0282 16.5822 27.2062 16.3649C27.0808 16.331 26.8518 16.3721 26.9964 16.1306C27.0784 15.993 27.0278 15.7056 27.3701 15.7974C28.0571 15.9809 28.7779 16.0123 29.4287 16.348C30.1688 16.7295 30.8582 17.1641 31.4778 17.7389C31.8418 18.0769 32.2299 18.3981 32.6011 18.7362C33.1797 19.265 33.5075 19.9701 33.9414 20.6028C34.0619 20.7766 34.0426 20.994 34.0161 21.1847C33.9679 21.5204 34.1126 21.745 34.3536 21.9382C33.8715 22.1072 34.1367 22.397 34.2355 22.6602C34.8261 22.6988 35.1395 22.3825 35.3878 21.9768C35.5059 21.745 35.6023 21.5011 35.6674 21.2475C35.6819 21.1968 35.7108 21.163 35.7445 21.1413C35.7662 21.0688 35.7831 20.9988 35.7976 20.9239C35.8048 20.8853 35.8144 20.8467 35.8169 20.8056C35.812 20.8515 35.8169 20.8032 35.8169 20.7911C35.8193 20.7694 35.8217 20.7477 35.8241 20.7259C35.8313 20.6414 35.8337 20.5569 35.8361 20.47C35.8361 20.4362 35.8458 20.4072 35.8602 20.383C35.8578 20.0498 35.8554 19.7214 35.8675 19.3954C35.8988 18.4512 35.6529 17.5988 35.0262 16.8864C33.5051 15.1623 31.6344 14.2254 29.2913 14.4065C28.5609 14.462 27.8956 14.7204 27.3219 15.1913C27.1242 15.3555 26.9627 15.5366 26.8952 15.7998C26.7891 16.2055 26.4733 16.3721 26.0925 16.3793C24.9788 16.3987 24.7136 16.6112 24.4436 17.7147C24.1302 18.9849 24.4822 20.1705 24.9908 21.2934C26.0177 23.5705 26.4782 25.9515 26.4203 28.4315Z" fill="white"/>
    <path d="M31.9575 27.4462C31.7357 26.4779 31.8394 25.512 31.984 24.5485C32.0925 23.8217 32.2202 23.0972 32.565 22.4356C32.7048 22.1675 32.8132 21.8995 33.1555 21.7739C33.4617 21.6604 33.3942 20.5883 33.1025 20.3975C32.9965 20.3275 32.9314 20.3951 32.8711 20.4579C32.6108 20.7308 32.2901 20.9746 32.1069 21.2934C31.5525 22.269 31.2656 23.3508 30.9884 24.4326C30.6967 25.5675 30.6991 26.7411 30.5449 27.893C30.5256 28.0306 30.5521 28.2286 30.3568 28.2238C30.1833 28.2214 30.258 28.0282 30.2218 27.9195C29.9928 27.2337 30.352 26.5721 30.3086 25.9104C30.217 24.464 30.3351 23.0248 30.352 21.5832C30.3617 20.7549 30.5352 19.9146 30.8534 19.1273C30.8992 19.0114 30.9571 18.8593 31.0535 18.8134C31.5332 18.5864 31.2632 18.2967 31.133 18.0262C31.0897 17.9344 30.9956 17.8379 30.904 17.8065C30.4846 17.6567 30.1423 17.1207 29.7132 17.2752C29.2263 17.4491 29.5734 18.0262 29.4673 18.415C29.3323 18.9148 29.125 19.393 28.9731 19.8856C28.8526 20.2792 28.814 20.6535 28.8116 21.0471C28.8068 21.6991 28.7586 22.3559 28.8189 23.0031C29.0792 25.7535 28.9828 28.5111 29.0455 31.264H31.5694C31.579 31.0853 31.5887 30.909 31.5911 30.7303C31.6104 29.6195 31.849 28.5425 31.9527 27.4462H31.9575Z" fill="white"/>
    <path d="M36.7956 12.8417C37.0511 12.6533 37.3693 12.8707 37.6224 12.9745C37.8972 13.0856 38.1262 13.1291 38.3842 12.9769C38.5794 12.8634 38.8084 12.861 39.0182 12.8779C39.4087 12.9093 39.7654 12.8248 40.1126 12.6654C40.3802 12.3394 40.7731 12.2791 41.1467 12.2428C41.2914 12.2283 41.4384 12.2187 41.5831 12.2114V10.1951C40.3247 10.1565 39.0688 10.072 37.8104 10.0454C37.0077 10.0285 36.2556 10.1879 35.8603 11.0258C35.7494 11.2624 35.5396 11.1224 35.3781 11.12C34.2283 11.091 33.1266 11.2045 32.3504 12.2066C31.9334 12.7475 31.7381 13.3391 31.9816 14.0298C32.0756 14.2978 32.2251 14.462 32.4975 14.5224C32.3673 13.4623 32.7578 13.0276 33.8498 12.9818C34.3633 12.96 34.8454 13.0783 35.3275 13.2136C35.8579 13.2522 36.3448 13.1774 36.798 12.8441L36.7956 12.8417Z" fill="white"/>
    <path d="M38.3769 16.7826C37.8587 16.7391 37.3307 16.6933 36.8293 16.5629C36.2315 16.4083 35.624 16.4228 35.0214 16.36C35.9567 17.5239 36.3231 18.8593 36.2146 20.342C36.2122 20.3758 36.2098 20.4048 36.2074 20.4337C36.2098 20.4458 36.2146 20.4579 36.2146 20.4724C36.2146 20.8129 36.1568 21.1485 36.0314 21.4649C36.0169 21.5035 35.9953 21.5349 35.9687 21.5566C35.7928 22.1023 35.4842 22.5998 35.1298 23.0489C35.1684 23.0465 35.207 23.0369 35.248 23.0369H40.0065C39.4424 22.4887 39.1194 21.6701 39.1628 20.8587C39.2255 19.7093 39.7341 18.7506 40.1511 17.7461C40.2982 17.3935 40.5851 17.0724 40.8767 16.8164C41.0792 16.6401 41.3275 16.5097 41.5782 16.5677V14.4185C41.4288 14.1602 41.1877 13.9863 40.8912 13.8704C39.5967 13.3633 38.2685 13.5009 36.9378 13.6748C36.7233 13.7038 36.5087 13.7376 36.2942 13.7714C35.9012 13.9114 35.7108 14.2857 35.4336 14.5562C35.0913 14.8918 35.4649 15.6839 36.0724 15.9254C36.4629 16.0799 36.8703 16.092 37.2801 15.9254C37.6128 15.7926 37.9599 15.6911 38.3094 15.609C38.5963 15.5438 38.8928 15.5487 39.0784 15.8505C39.1845 16.022 39.2978 16.2175 39.17 16.4059C38.9868 16.6788 38.6879 16.8043 38.3721 16.7778L38.3769 16.7826Z" fill="white"/>
    <path d="M40.0089 23.0393H41.583V16.5749C41.3323 16.517 41.0816 16.6474 40.8816 16.8237C40.5899 17.0796 40.303 17.4008 40.156 17.7534C39.7389 18.7579 39.2279 19.7142 39.1676 20.866C39.1242 21.6774 39.4448 22.496 40.0113 23.0441L40.0089 23.0393Z" fill="white"/>
    <path d="M35.3251 13.2112C35.1347 13.5516 35.5059 13.5323 35.6288 13.6386C35.8072 13.7907 36.07 13.7521 36.299 13.7762C35.9061 13.9163 35.7156 14.2906 35.4384 14.561C35.0961 14.8967 35.4697 15.6887 36.0772 15.9302C36.4677 16.0847 36.8751 16.0968 37.2849 15.9302C37.6176 15.7974 37.9647 15.696 38.3143 15.6139C38.6011 15.5487 38.8976 15.5535 39.0832 15.8553C39.1893 16.0268 39.3026 16.2224 39.1749 16.4107C38.9916 16.6836 38.6927 16.8092 38.3769 16.7826C37.8587 16.7391 37.3307 16.6933 36.8293 16.5629C36.2315 16.4083 35.624 16.4228 35.0214 16.36C34.262 15.6283 33.3605 15.0995 32.4926 14.52C32.3625 13.4599 32.753 13.0252 33.845 12.9793C34.3584 12.9576 34.8406 13.0759 35.3227 13.2112H35.3251Z" fill="white"/>
    <path d="M41.5806 12.209C41.436 12.2163 41.2914 12.2259 41.1443 12.2404C40.7707 12.2791 40.3802 12.3394 40.1102 12.663C40.3247 12.663 40.5417 12.6654 40.7586 12.663C41.0334 12.663 41.3082 12.663 41.5806 12.6727V12.2066V12.209Z" fill="white"/>
    <path d="M58.9808 19.067L32.8101 42.1387L33.5061 42.9309L59.6768 19.8592L58.9808 19.067Z" fill="#59C9EB"/>
    <path d="M8.14859 19.7721L7.45622 20.5674L32.8464 42.7471L33.5387 41.9517L8.14859 19.7721Z" fill="#59C9EB"/>
    <path d="M33.751 42.1595H32.6975V70.8928H33.751V42.1595Z" fill="#59C9EB"/>
    </g>
  <defs>
    <clipPath id="clip0_213_3504">
      <rect width="209" height="85" fill="white"/>
    </clipPath>
  </defs>
</svg>